<?xml version="1.0" encoding="UTF-8"?><svg xmlns="http://www.w3.org/2000/svg" xmlns:xlink="http://www.w3.org/1999/xlink" contentStyleType="text/css" height="509px" preserveAspectRatio="none" style="width:2333px;height:509px;background:#FFFFFF;" version="1.1" viewBox="0 0 2333 509" width="2333px" zoomAndPan="magnify">
    <defs/>
    <g>
        <!--cluster java-->
        <g id="cluster_java">
            <path d="M8.5,266 L38.5,266 A3.75,3.75 0 0 1 41,268.5 L48,289.6094 L2323.5,289.6094 A2.5,2.5 0 0 1 2326,292.1094 L2326,499.5 A2.5,2.5 0 0 1 2323.5,502 L8.5,502 A2.5,2.5 0 0 1 6,499.5 L6,268.5 A2.5,2.5 0 0 1 8.5,266 " fill="none" style="stroke:#000000;stroke-width:1.5;"/>
            <line style="stroke:#000000;stroke-width:1.5;" x1="6" x2="48" y1="289.6094" y2="289.6094"/>
            <text fill="#000000" font-family="sans-serif" font-size="14" font-weight="bold" lengthAdjust="spacing" textLength="29" x="10" y="282.5332">java</text>
        </g>
        <!--cluster lang-->
        <g id="cluster_lang">
            <path d="M2184.5,354 L2215.5,354 A3.75,3.75 0 0 1 2218,356.5 L2225,377.6094 L2299.5,377.6094 A2.5,2.5 0 0 1 2302,380.1094 L2302,451.5 A2.5,2.5 0 0 1 2299.5,454 L2184.5,454 A2.5,2.5 0 0 1 2182,451.5 L2182,356.5 A2.5,2.5 0 0 1 2184.5,354 " fill="none" style="stroke:#000000;stroke-width:1.5;"/>
            <line style="stroke:#000000;stroke-width:1.5;" x1="2182" x2="2225" y1="377.6094" y2="377.6094"/>
            <text fill="#000000" font-family="sans-serif" font-size="14" font-weight="bold" lengthAdjust="spacing" textLength="30" x="2186" y="370.5332">lang</text>
        </g>
        <!--cluster io-->
        <g id="cluster_io">
            <path d="M1804.5,354 L1818.5,354 A3.75,3.75 0 0 1 1821,356.5 L1828,377.6094 L2155.5,377.6094 A2.5,2.5 0 0 1 2158,380.1094 L2158,451.5 A2.5,2.5 0 0 1 2155.5,454 L1804.5,454 A2.5,2.5 0 0 1 1802,451.5 L1802,356.5 A2.5,2.5 0 0 1 1804.5,354 " fill="none" style="stroke:#000000;stroke-width:1.5;"/>
            <line style="stroke:#000000;stroke-width:1.5;" x1="1802" x2="1828" y1="377.6094" y2="377.6094"/>
            <text fill="#000000" font-family="sans-serif" font-size="14" font-weight="bold" lengthAdjust="spacing" textLength="13" x="1806" y="370.5332">io</text>
        </g>
        <!--cluster net-->
        <g id="cluster_net">
            <path d="M1497.5,354 L1521.5,354 A3.75,3.75 0 0 1 1524,356.5 L1531,377.6094 L1775.5,377.6094 A2.5,2.5 0 0 1 1778,380.1094 L1778,451.5 A2.5,2.5 0 0 1 1775.5,454 L1497.5,454 A2.5,2.5 0 0 1 1495,451.5 L1495,356.5 A2.5,2.5 0 0 1 1497.5,354 " fill="none" style="stroke:#000000;stroke-width:1.5;"/>
            <line style="stroke:#000000;stroke-width:1.5;" x1="1495" x2="1531" y1="377.6094" y2="377.6094"/>
            <text fill="#000000" font-family="sans-serif" font-size="14" font-weight="bold" lengthAdjust="spacing" textLength="23" x="1499" y="370.5332">net</text>
        </g>
        <!--cluster time-->
        <g id="cluster_time">
            <path d="M686.5,310 L717.5,310 A3.75,3.75 0 0 1 720,312.5 L727,333.6094 L1468.5,333.6094 A2.5,2.5 0 0 1 1471,336.1094 L1471,475.5 A2.5,2.5 0 0 1 1468.5,478 L686.5,478 A2.5,2.5 0 0 1 684,475.5 L684,312.5 A2.5,2.5 0 0 1 686.5,310 " fill="none" style="stroke:#000000;stroke-width:1.5;"/>
            <line style="stroke:#000000;stroke-width:1.5;" x1="684" x2="727" y1="333.6094" y2="333.6094"/>
            <text fill="#000000" font-family="sans-serif" font-size="14" font-weight="bold" lengthAdjust="spacing" textLength="30" x="688" y="326.5332">time</text>
        </g>
        <!--cluster format-->
        <g id="cluster_format">
            <path d="M1261.5,354 L1307.5,354 A3.75,3.75 0 0 1 1310,356.5 L1317,377.6094 L1444.5,377.6094 A2.5,2.5 0 0 1 1447,380.1094 L1447,451.5 A2.5,2.5 0 0 1 1444.5,454 L1261.5,454 A2.5,2.5 0 0 1 1259,451.5 L1259,356.5 A2.5,2.5 0 0 1 1261.5,354 " fill="none" style="stroke:#000000;stroke-width:1.5;"/>
            <line style="stroke:#000000;stroke-width:1.5;" x1="1259" x2="1317" y1="377.6094" y2="377.6094"/>
            <text fill="#000000" font-family="sans-serif" font-size="14" font-weight="bold" lengthAdjust="spacing" textLength="45" x="1263" y="370.5332">format</text>
        </g>
        <!--cluster temporal-->
        <g id="cluster_temporal">
            <path d="M1101.5,354 L1164.5,354 A3.75,3.75 0 0 1 1167,356.5 L1174,377.6094 L1232.5,377.6094 A2.5,2.5 0 0 1 1235,380.1094 L1235,451.5 A2.5,2.5 0 0 1 1232.5,454 L1101.5,454 A2.5,2.5 0 0 1 1099,451.5 L1099,356.5 A2.5,2.5 0 0 1 1101.5,354 " fill="none" style="stroke:#000000;stroke-width:1.5;"/>
            <line style="stroke:#000000;stroke-width:1.5;" x1="1099" x2="1174" y1="377.6094" y2="377.6094"/>
            <text fill="#000000" font-family="sans-serif" font-size="14" font-weight="bold" lengthAdjust="spacing" textLength="62" x="1103" y="370.5332">temporal</text>
        </g>
        <!--cluster util-->
        <g id="cluster_util">
            <path d="M32.5,310 L55.5,310 A3.75,3.75 0 0 1 58,312.5 L65,333.6094 L657.5,333.6094 A2.5,2.5 0 0 1 660,336.1094 L660,475.5 A2.5,2.5 0 0 1 657.5,478 L32.5,478 A2.5,2.5 0 0 1 30,475.5 L30,312.5 A2.5,2.5 0 0 1 32.5,310 " fill="none" style="stroke:#000000;stroke-width:1.5;"/>
            <line style="stroke:#000000;stroke-width:1.5;" x1="30" x2="65" y1="333.6094" y2="333.6094"/>
            <text fill="#000000" font-family="sans-serif" font-size="14" font-weight="bold" lengthAdjust="spacing" textLength="22" x="34" y="326.5332">util</text>
        </g>
        <!--cluster concurrent-->
        <g id="cluster_concurrent">
            <path d="M152.5,354 L231.5,354 A3.75,3.75 0 0 1 234,356.5 L241,377.6094 L633.5,377.6094 A2.5,2.5 0 0 1 636,380.1094 L636,451.5 A2.5,2.5 0 0 1 633.5,454 L152.5,454 A2.5,2.5 0 0 1 150,451.5 L150,356.5 A2.5,2.5 0 0 1 152.5,354 " fill="none" style="stroke:#000000;stroke-width:1.5;"/>
            <line style="stroke:#000000;stroke-width:1.5;" x1="150" x2="241" y1="377.6094" y2="377.6094"/>
            <text fill="#000000" font-family="sans-serif" font-size="14" font-weight="bold" lengthAdjust="spacing" textLength="78" x="154" y="370.5332">concurrent</text>
        </g>
        <!--cluster com-->
        <g id="cluster_com">
            <path d="M963.5,6 L993.5,6 A3.75,3.75 0 0 1 996,8.5 L1003,29.6094 L2256.5,29.6094 A2.5,2.5 0 0 1 2259,32.1094 L2259,239.5 A2.5,2.5 0 0 1 2256.5,242 L963.5,242 A2.5,2.5 0 0 1 961,239.5 L961,8.5 A2.5,2.5 0 0 1 963.5,6 " fill="none" style="stroke:#000000;stroke-width:1.5;"/>
            <line style="stroke:#000000;stroke-width:1.5;" x1="961" x2="1003" y1="29.6094" y2="29.6094"/>
            <text fill="#000000" font-family="sans-serif" font-size="14" font-weight="bold" lengthAdjust="spacing" textLength="29" x="965" y="22.5332">com</text>
        </g>
        <!--cluster mycompany-->
        <g id="cluster_mycompany">
            <path d="M987.5,50 L1069.5,50 A3.75,3.75 0 0 1 1072,52.5 L1079,73.6094 L2232.5,73.6094 A2.5,2.5 0 0 1 2235,76.1094 L2235,215.5 A2.5,2.5 0 0 1 2232.5,218 L987.5,218 A2.5,2.5 0 0 1 985,215.5 L985,52.5 A2.5,2.5 0 0 1 987.5,50 " fill="none" style="stroke:#000000;stroke-width:1.5;"/>
            <line style="stroke:#000000;stroke-width:1.5;" x1="985" x2="1079" y1="73.6094" y2="73.6094"/>
            <text fill="#000000" font-family="sans-serif" font-size="14" font-weight="bold" lengthAdjust="spacing" textLength="81" x="989" y="66.5332">mycompany</text>
        </g>
        <!--cluster homecaredt-->
        <g id="cluster_homecaredt">
            <path d="M1011.5,94 L1096.5,94 A3.75,3.75 0 0 1 1099,96.5 L1106,117.6094 L2208.5,117.6094 A2.5,2.5 0 0 1 2211,120.1094 L2211,191.5 A2.5,2.5 0 0 1 2208.5,194 L1011.5,194 A2.5,2.5 0 0 1 1009,191.5 L1009,96.5 A2.5,2.5 0 0 1 1011.5,94 " fill="none" style="stroke:#000000;stroke-width:1.5;"/>
            <line style="stroke:#000000;stroke-width:1.5;" x1="1009" x2="1106" y1="117.6094" y2="117.6094"/>
            <text fill="#000000" font-family="sans-serif" font-size="14" font-weight="bold" lengthAdjust="spacing" textLength="84" x="1013" y="110.5332">homecaredt</text>
        </g>
        <!--class Override-->
        <g id="elem_Override">
            <rect codeLine="1" fill="#F1F1F1" height="48" id="Override" rx="2.5" ry="2.5" style="stroke:#181818;stroke-width:0.5;" width="87" x="2198.5" y="390"/>
            <ellipse cx="2213.5" cy="406" fill="#E3664A" rx="11" ry="11" style="stroke:#181818;stroke-width:1.0;"/>
            <path d="M2215.8438,403.5781 L2215.8438,403.0625 Q2215.8438,402.2344 2215.3594,401.7344 Q2214.8906,401.2344 2214.1406,401.2344 Q2213.5469,401.2344 2213.0156,401.6406 Q2212.4844,402.0313 2212.2188,402.6563 Q2211.75,403.75 2211.75,404.8594 L2211.75,407.375 Q2211.75,409.2969 2212.6094,410.4219 Q2213.1719,411.1719 2214.1875,411.1719 Q2214.7344,411.1719 2215.1719,411.0313 Q2215.625,410.8906 2215.875,410.6406 Q2216.125,410.3906 2216.3438,410.3906 Q2216.6094,410.3906 2216.7969,410.5781 Q2216.9844,410.7656 2216.9844,411.0313 Q2216.9844,411.4531 2216.4063,411.8438 Q2215.5781,412.4063 2214.1406,412.4063 Q2213.0469,412.4063 2212.3281,411.9063 Q2211.4063,411.2656 2210.9531,410 Q2210.5,408.7344 2210.5,407.5 L2210.5,404.7656 Q2210.5,402.7813 2211.4844,401.3906 Q2212.4688,399.9844 2214.1094,399.9844 Q2214.8594,399.9844 2215.5,400.2969 Q2216.1563,400.5938 2216.625,401.3594 Q2217.0938,402.125 2217.0938,403.0625 L2217.0938,407.5938 Q2217.4531,407.7656 2217.4531,408.1563 Q2217.4531,408.4375 2217.25,408.625 Q2217.0625,408.7969 2216.5938,408.7969 L2215.8438,408.7969 L2215.8438,408.75 Q2215.4531,408.8125 2215.2656,408.8125 Q2214.2656,408.8125 2213.5156,408.0781 Q2212.7813,407.3281 2212.7813,406.3281 Q2212.7813,405.2656 2213.5938,404.4688 Q2214.4219,403.6719 2215.8438,403.5781 Z M2215.8438,404.8594 Q2214.9531,404.9531 2214.4844,405.375 Q2214.0313,405.7969 2214.0313,406.3438 Q2214.0313,406.8281 2214.4063,407.1719 Q2214.7969,407.5156 2215.4375,407.5156 Q2215.5625,407.5156 2215.8438,407.5 L2215.8438,404.8594 Z " fill="#000000"/>
            <text fill="#000000" font-family="sans-serif" font-size="14" lengthAdjust="spacing" textLength="55" x="2227.5" y="411.7285">Override</text>
            <line style="stroke:#181818;stroke-width:0.5;" x1="2199.5" x2="2284.5" y1="422" y2="422"/>
            <line style="stroke:#181818;stroke-width:0.5;" x1="2199.5" x2="2284.5" y1="430" y2="430"/>
        </g>
        <!--class BufferedReader-->
        <g id="elem_BufferedReader">
            <rect codeLine="11" fill="#F1F1F1" height="48" id="BufferedReader" rx="2.5" ry="2.5" style="stroke:#181818;stroke-width:0.5;" width="133" x="2008.5" y="390"/>
            <ellipse cx="2023.5" cy="406" fill="#ADD1B2" rx="11" ry="11" style="stroke:#181818;stroke-width:1.0;"/>
            <path d="M2026.2656,401.875 Q2026.4219,401.6563 2026.6094,401.5469 Q2026.7969,401.4375 2027.0156,401.4375 Q2027.3906,401.4375 2027.625,401.7031 Q2027.8594,401.9531 2027.8594,402.5625 L2027.8594,404.0156 Q2027.8594,404.625 2027.625,404.8906 Q2027.3906,405.1563 2027.0156,405.1563 Q2026.6719,405.1563 2026.4688,404.9531 Q2026.2656,404.7656 2026.1563,404.25 Q2026.1094,403.8906 2025.9219,403.7031 Q2025.5938,403.3281 2024.9844,403.1094 Q2024.375,402.8906 2023.75,402.8906 Q2022.9844,402.8906 2022.3438,403.2188 Q2021.7188,403.5469 2021.2188,404.2969 Q2020.7344,405.0469 2020.7344,406.0781 L2020.7344,407.1719 Q2020.7344,408.4063 2021.625,409.2344 Q2022.5156,410.0469 2024.1094,410.0469 Q2025.0469,410.0469 2025.7031,409.7969 Q2026.0938,409.6406 2026.5156,409.2031 Q2026.7813,408.9375 2026.9219,408.8594 Q2027.0781,408.7813 2027.2813,408.7813 Q2027.6094,408.7813 2027.8594,409.0469 Q2028.125,409.2969 2028.125,409.6406 Q2028.125,409.9844 2027.7813,410.3906 Q2027.2813,410.9688 2026.4844,411.2969 Q2025.4063,411.75 2024.1094,411.75 Q2022.5938,411.75 2021.3906,411.125 Q2020.4063,410.625 2019.7188,409.5625 Q2019.0313,408.4844 2019.0313,407.2031 L2019.0313,406.0469 Q2019.0313,404.7188 2019.6406,403.5781 Q2020.2656,402.4219 2021.3594,401.8125 Q2022.4531,401.1875 2023.6875,401.1875 Q2024.4219,401.1875 2025.0625,401.3594 Q2025.7188,401.5156 2026.2656,401.875 Z " fill="#000000"/>
            <text fill="#000000" font-family="sans-serif" font-size="14" lengthAdjust="spacing" textLength="101" x="2037.5" y="411.7285">BufferedReader</text>
            <line style="stroke:#181818;stroke-width:0.5;" x1="2009.5" x2="2140.5" y1="422" y2="422"/>
            <line style="stroke:#181818;stroke-width:0.5;" x1="2009.5" x2="2140.5" y1="430" y2="430"/>
        </g>
        <!--class InputStreamReader-->
        <g id="elem_InputStreamReader">
            <rect codeLine="12" fill="#F1F1F1" height="48" id="InputStreamReader" rx="2.5" ry="2.5" style="stroke:#181818;stroke-width:0.5;" width="155" x="1818.5" y="390"/>
            <ellipse cx="1833.5" cy="406" fill="#ADD1B2" rx="11" ry="11" style="stroke:#181818;stroke-width:1.0;"/>
            <path d="M1836.2656,401.875 Q1836.4219,401.6563 1836.6094,401.5469 Q1836.7969,401.4375 1837.0156,401.4375 Q1837.3906,401.4375 1837.625,401.7031 Q1837.8594,401.9531 1837.8594,402.5625 L1837.8594,404.0156 Q1837.8594,404.625 1837.625,404.8906 Q1837.3906,405.1563 1837.0156,405.1563 Q1836.6719,405.1563 1836.4688,404.9531 Q1836.2656,404.7656 1836.1563,404.25 Q1836.1094,403.8906 1835.9219,403.7031 Q1835.5938,403.3281 1834.9844,403.1094 Q1834.375,402.8906 1833.75,402.8906 Q1832.9844,402.8906 1832.3438,403.2188 Q1831.7188,403.5469 1831.2188,404.2969 Q1830.7344,405.0469 1830.7344,406.0781 L1830.7344,407.1719 Q1830.7344,408.4063 1831.625,409.2344 Q1832.5156,410.0469 1834.1094,410.0469 Q1835.0469,410.0469 1835.7031,409.7969 Q1836.0938,409.6406 1836.5156,409.2031 Q1836.7813,408.9375 1836.9219,408.8594 Q1837.0781,408.7813 1837.2813,408.7813 Q1837.6094,408.7813 1837.8594,409.0469 Q1838.125,409.2969 1838.125,409.6406 Q1838.125,409.9844 1837.7813,410.3906 Q1837.2813,410.9688 1836.4844,411.2969 Q1835.4063,411.75 1834.1094,411.75 Q1832.5938,411.75 1831.3906,411.125 Q1830.4063,410.625 1829.7188,409.5625 Q1829.0313,408.4844 1829.0313,407.2031 L1829.0313,406.0469 Q1829.0313,404.7188 1829.6406,403.5781 Q1830.2656,402.4219 1831.3594,401.8125 Q1832.4531,401.1875 1833.6875,401.1875 Q1834.4219,401.1875 1835.0625,401.3594 Q1835.7188,401.5156 1836.2656,401.875 Z " fill="#000000"/>
            <text fill="#000000" font-family="sans-serif" font-size="14" lengthAdjust="spacing" textLength="123" x="1847.5" y="411.7285">InputStreamReader</text>
            <line style="stroke:#181818;stroke-width:0.5;" x1="1819.5" x2="1972.5" y1="422" y2="422"/>
            <line style="stroke:#181818;stroke-width:0.5;" x1="1819.5" x2="1972.5" y1="430" y2="430"/>
        </g>
        <!--class HttpURLConnection-->
        <g id="elem_HttpURLConnection">
            <rect codeLine="13" fill="#F1F1F1" height="48" id="HttpURLConnection" rx="2.5" ry="2.5" style="stroke:#181818;stroke-width:0.5;" width="156" x="1606" y="390"/>
            <ellipse cx="1621" cy="406" fill="#ADD1B2" rx="11" ry="11" style="stroke:#181818;stroke-width:1.0;"/>
            <path d="M1623.7656,401.875 Q1623.9219,401.6563 1624.1094,401.5469 Q1624.2969,401.4375 1624.5156,401.4375 Q1624.8906,401.4375 1625.125,401.7031 Q1625.3594,401.9531 1625.3594,402.5625 L1625.3594,404.0156 Q1625.3594,404.625 1625.125,404.8906 Q1624.8906,405.1563 1624.5156,405.1563 Q1624.1719,405.1563 1623.9688,404.9531 Q1623.7656,404.7656 1623.6563,404.25 Q1623.6094,403.8906 1623.4219,403.7031 Q1623.0938,403.3281 1622.4844,403.1094 Q1621.875,402.8906 1621.25,402.8906 Q1620.4844,402.8906 1619.8438,403.2188 Q1619.2188,403.5469 1618.7188,404.2969 Q1618.2344,405.0469 1618.2344,406.0781 L1618.2344,407.1719 Q1618.2344,408.4063 1619.125,409.2344 Q1620.0156,410.0469 1621.6094,410.0469 Q1622.5469,410.0469 1623.2031,409.7969 Q1623.5938,409.6406 1624.0156,409.2031 Q1624.2813,408.9375 1624.4219,408.8594 Q1624.5781,408.7813 1624.7813,408.7813 Q1625.1094,408.7813 1625.3594,409.0469 Q1625.625,409.2969 1625.625,409.6406 Q1625.625,409.9844 1625.2813,410.3906 Q1624.7813,410.9688 1623.9844,411.2969 Q1622.9063,411.75 1621.6094,411.75 Q1620.0938,411.75 1618.8906,411.125 Q1617.9063,410.625 1617.2188,409.5625 Q1616.5313,408.4844 1616.5313,407.2031 L1616.5313,406.0469 Q1616.5313,404.7188 1617.1406,403.5781 Q1617.7656,402.4219 1618.8594,401.8125 Q1619.9531,401.1875 1621.1875,401.1875 Q1621.9219,401.1875 1622.5625,401.3594 Q1623.2188,401.5156 1623.7656,401.875 Z " fill="#000000"/>
            <text fill="#000000" font-family="sans-serif" font-size="14" lengthAdjust="spacing" textLength="124" x="1635" y="411.7285">HttpURLConnection</text>
            <line style="stroke:#181818;stroke-width:0.5;" x1="1607" x2="1761" y1="422" y2="422"/>
            <line style="stroke:#181818;stroke-width:0.5;" x1="1607" x2="1761" y1="430" y2="430"/>
        </g>
        <!--class URL-->
        <g id="elem_URL">
            <rect codeLine="14" fill="#F1F1F1" height="48" id="URL" rx="2.5" ry="2.5" style="stroke:#181818;stroke-width:0.5;" width="59" x="1511.5" y="390"/>
            <ellipse cx="1526.5" cy="406" fill="#ADD1B2" rx="11" ry="11" style="stroke:#181818;stroke-width:1.0;"/>
            <path d="M1529.2656,401.875 Q1529.4219,401.6563 1529.6094,401.5469 Q1529.7969,401.4375 1530.0156,401.4375 Q1530.3906,401.4375 1530.625,401.7031 Q1530.8594,401.9531 1530.8594,402.5625 L1530.8594,404.0156 Q1530.8594,404.625 1530.625,404.8906 Q1530.3906,405.1563 1530.0156,405.1563 Q1529.6719,405.1563 1529.4688,404.9531 Q1529.2656,404.7656 1529.1563,404.25 Q1529.1094,403.8906 1528.9219,403.7031 Q1528.5938,403.3281 1527.9844,403.1094 Q1527.375,402.8906 1526.75,402.8906 Q1525.9844,402.8906 1525.3438,403.2188 Q1524.7188,403.5469 1524.2188,404.2969 Q1523.7344,405.0469 1523.7344,406.0781 L1523.7344,407.1719 Q1523.7344,408.4063 1524.625,409.2344 Q1525.5156,410.0469 1527.1094,410.0469 Q1528.0469,410.0469 1528.7031,409.7969 Q1529.0938,409.6406 1529.5156,409.2031 Q1529.7813,408.9375 1529.9219,408.8594 Q1530.0781,408.7813 1530.2813,408.7813 Q1530.6094,408.7813 1530.8594,409.0469 Q1531.125,409.2969 1531.125,409.6406 Q1531.125,409.9844 1530.7813,410.3906 Q1530.2813,410.9688 1529.4844,411.2969 Q1528.4063,411.75 1527.1094,411.75 Q1525.5938,411.75 1524.3906,411.125 Q1523.4063,410.625 1522.7188,409.5625 Q1522.0313,408.4844 1522.0313,407.2031 L1522.0313,406.0469 Q1522.0313,404.7188 1522.6406,403.5781 Q1523.2656,402.4219 1524.3594,401.8125 Q1525.4531,401.1875 1526.6875,401.1875 Q1527.4219,401.1875 1528.0625,401.3594 Q1528.7188,401.5156 1529.2656,401.875 Z " fill="#000000"/>
            <text fill="#000000" font-family="sans-serif" font-size="14" lengthAdjust="spacing" textLength="27" x="1540.5" y="411.7285">URL</text>
            <line style="stroke:#181818;stroke-width:0.5;" x1="1512.5" x2="1569.5" y1="422" y2="422"/>
            <line style="stroke:#181818;stroke-width:0.5;" x1="1512.5" x2="1569.5" y1="430" y2="430"/>
        </g>
        <!--class Duration-->
        <g id="elem_Duration">
            <rect codeLine="15" fill="#F1F1F1" height="48" id="Duration" rx="2.5" ry="2.5" style="stroke:#181818;stroke-width:0.5;" width="86" x="700" y="390"/>
            <ellipse cx="715" cy="406" fill="#ADD1B2" rx="11" ry="11" style="stroke:#181818;stroke-width:1.0;"/>
            <path d="M717.7656,401.875 Q717.9219,401.6563 718.1094,401.5469 Q718.2969,401.4375 718.5156,401.4375 Q718.8906,401.4375 719.125,401.7031 Q719.3594,401.9531 719.3594,402.5625 L719.3594,404.0156 Q719.3594,404.625 719.125,404.8906 Q718.8906,405.1563 718.5156,405.1563 Q718.1719,405.1563 717.9688,404.9531 Q717.7656,404.7656 717.6563,404.25 Q717.6094,403.8906 717.4219,403.7031 Q717.0938,403.3281 716.4844,403.1094 Q715.875,402.8906 715.25,402.8906 Q714.4844,402.8906 713.8438,403.2188 Q713.2188,403.5469 712.7188,404.2969 Q712.2344,405.0469 712.2344,406.0781 L712.2344,407.1719 Q712.2344,408.4063 713.125,409.2344 Q714.0156,410.0469 715.6094,410.0469 Q716.5469,410.0469 717.2031,409.7969 Q717.5938,409.6406 718.0156,409.2031 Q718.2813,408.9375 718.4219,408.8594 Q718.5781,408.7813 718.7813,408.7813 Q719.1094,408.7813 719.3594,409.0469 Q719.625,409.2969 719.625,409.6406 Q719.625,409.9844 719.2813,410.3906 Q718.7813,410.9688 717.9844,411.2969 Q716.9063,411.75 715.6094,411.75 Q714.0938,411.75 712.8906,411.125 Q711.9063,410.625 711.2188,409.5625 Q710.5313,408.4844 710.5313,407.2031 L710.5313,406.0469 Q710.5313,404.7188 711.1406,403.5781 Q711.7656,402.4219 712.8594,401.8125 Q713.9531,401.1875 715.1875,401.1875 Q715.9219,401.1875 716.5625,401.3594 Q717.2188,401.5156 717.7656,401.875 Z " fill="#000000"/>
            <text fill="#000000" font-family="sans-serif" font-size="14" lengthAdjust="spacing" textLength="54" x="729" y="411.7285">Duration</text>
            <line style="stroke:#181818;stroke-width:0.5;" x1="701" x2="785" y1="422" y2="422"/>
            <line style="stroke:#181818;stroke-width:0.5;" x1="701" x2="785" y1="430" y2="430"/>
        </g>
        <!--class LocalDateTime-->
        <g id="elem_LocalDateTime">
            <rect codeLine="16" fill="#F1F1F1" height="48" id="LocalDateTime" rx="2.5" ry="2.5" style="stroke:#181818;stroke-width:0.5;" width="127" x="953.5" y="390"/>
            <ellipse cx="968.5" cy="406" fill="#ADD1B2" rx="11" ry="11" style="stroke:#181818;stroke-width:1.0;"/>
            <path d="M971.2656,401.875 Q971.4219,401.6563 971.6094,401.5469 Q971.7969,401.4375 972.0156,401.4375 Q972.3906,401.4375 972.625,401.7031 Q972.8594,401.9531 972.8594,402.5625 L972.8594,404.0156 Q972.8594,404.625 972.625,404.8906 Q972.3906,405.1563 972.0156,405.1563 Q971.6719,405.1563 971.4688,404.9531 Q971.2656,404.7656 971.1563,404.25 Q971.1094,403.8906 970.9219,403.7031 Q970.5938,403.3281 969.9844,403.1094 Q969.375,402.8906 968.75,402.8906 Q967.9844,402.8906 967.3438,403.2188 Q966.7188,403.5469 966.2188,404.2969 Q965.7344,405.0469 965.7344,406.0781 L965.7344,407.1719 Q965.7344,408.4063 966.625,409.2344 Q967.5156,410.0469 969.1094,410.0469 Q970.0469,410.0469 970.7031,409.7969 Q971.0938,409.6406 971.5156,409.2031 Q971.7813,408.9375 971.9219,408.8594 Q972.0781,408.7813 972.2813,408.7813 Q972.6094,408.7813 972.8594,409.0469 Q973.125,409.2969 973.125,409.6406 Q973.125,409.9844 972.7813,410.3906 Q972.2813,410.9688 971.4844,411.2969 Q970.4063,411.75 969.1094,411.75 Q967.5938,411.75 966.3906,411.125 Q965.4063,410.625 964.7188,409.5625 Q964.0313,408.4844 964.0313,407.2031 L964.0313,406.0469 Q964.0313,404.7188 964.6406,403.5781 Q965.2656,402.4219 966.3594,401.8125 Q967.4531,401.1875 968.6875,401.1875 Q969.4219,401.1875 970.0625,401.3594 Q970.7188,401.5156 971.2656,401.875 Z " fill="#000000"/>
            <text fill="#000000" font-family="sans-serif" font-size="14" lengthAdjust="spacing" textLength="95" x="982.5" y="411.7285">LocalDateTime</text>
            <line style="stroke:#181818;stroke-width:0.5;" x1="954.5" x2="1079.5" y1="422" y2="422"/>
            <line style="stroke:#181818;stroke-width:0.5;" x1="954.5" x2="1079.5" y1="430" y2="430"/>
        </g>
        <!--class LocalTime-->
        <g id="elem_LocalTime">
            <rect codeLine="17" fill="#F1F1F1" height="48" id="LocalTime" rx="2.5" ry="2.5" style="stroke:#181818;stroke-width:0.5;" width="97" x="821.5" y="390"/>
            <ellipse cx="836.5" cy="406" fill="#ADD1B2" rx="11" ry="11" style="stroke:#181818;stroke-width:1.0;"/>
            <path d="M839.2656,401.875 Q839.4219,401.6563 839.6094,401.5469 Q839.7969,401.4375 840.0156,401.4375 Q840.3906,401.4375 840.625,401.7031 Q840.8594,401.9531 840.8594,402.5625 L840.8594,404.0156 Q840.8594,404.625 840.625,404.8906 Q840.3906,405.1563 840.0156,405.1563 Q839.6719,405.1563 839.4688,404.9531 Q839.2656,404.7656 839.1563,404.25 Q839.1094,403.8906 838.9219,403.7031 Q838.5938,403.3281 837.9844,403.1094 Q837.375,402.8906 836.75,402.8906 Q835.9844,402.8906 835.3438,403.2188 Q834.7188,403.5469 834.2188,404.2969 Q833.7344,405.0469 833.7344,406.0781 L833.7344,407.1719 Q833.7344,408.4063 834.625,409.2344 Q835.5156,410.0469 837.1094,410.0469 Q838.0469,410.0469 838.7031,409.7969 Q839.0938,409.6406 839.5156,409.2031 Q839.7813,408.9375 839.9219,408.8594 Q840.0781,408.7813 840.2813,408.7813 Q840.6094,408.7813 840.8594,409.0469 Q841.125,409.2969 841.125,409.6406 Q841.125,409.9844 840.7813,410.3906 Q840.2813,410.9688 839.4844,411.2969 Q838.4063,411.75 837.1094,411.75 Q835.5938,411.75 834.3906,411.125 Q833.4063,410.625 832.7188,409.5625 Q832.0313,408.4844 832.0313,407.2031 L832.0313,406.0469 Q832.0313,404.7188 832.6406,403.5781 Q833.2656,402.4219 834.3594,401.8125 Q835.4531,401.1875 836.6875,401.1875 Q837.4219,401.1875 838.0625,401.3594 Q838.7188,401.5156 839.2656,401.875 Z " fill="#000000"/>
            <text fill="#000000" font-family="sans-serif" font-size="14" lengthAdjust="spacing" textLength="65" x="850.5" y="411.7285">LocalTime</text>
            <line style="stroke:#181818;stroke-width:0.5;" x1="822.5" x2="917.5" y1="422" y2="422"/>
            <line style="stroke:#181818;stroke-width:0.5;" x1="822.5" x2="917.5" y1="430" y2="430"/>
        </g>
        <!--class DateTimeFormatter-->
        <g id="elem_DateTimeFormatter">
            <rect codeLine="18" fill="#F1F1F1" height="48" id="DateTimeFormatter" rx="2.5" ry="2.5" style="stroke:#181818;stroke-width:0.5;" width="155" x="1275.5" y="390"/>
            <ellipse cx="1290.5" cy="406" fill="#ADD1B2" rx="11" ry="11" style="stroke:#181818;stroke-width:1.0;"/>
            <path d="M1293.2656,401.875 Q1293.4219,401.6563 1293.6094,401.5469 Q1293.7969,401.4375 1294.0156,401.4375 Q1294.3906,401.4375 1294.625,401.7031 Q1294.8594,401.9531 1294.8594,402.5625 L1294.8594,404.0156 Q1294.8594,404.625 1294.625,404.8906 Q1294.3906,405.1563 1294.0156,405.1563 Q1293.6719,405.1563 1293.4688,404.9531 Q1293.2656,404.7656 1293.1563,404.25 Q1293.1094,403.8906 1292.9219,403.7031 Q1292.5938,403.3281 1291.9844,403.1094 Q1291.375,402.8906 1290.75,402.8906 Q1289.9844,402.8906 1289.3438,403.2188 Q1288.7188,403.5469 1288.2188,404.2969 Q1287.7344,405.0469 1287.7344,406.0781 L1287.7344,407.1719 Q1287.7344,408.4063 1288.625,409.2344 Q1289.5156,410.0469 1291.1094,410.0469 Q1292.0469,410.0469 1292.7031,409.7969 Q1293.0938,409.6406 1293.5156,409.2031 Q1293.7813,408.9375 1293.9219,408.8594 Q1294.0781,408.7813 1294.2813,408.7813 Q1294.6094,408.7813 1294.8594,409.0469 Q1295.125,409.2969 1295.125,409.6406 Q1295.125,409.9844 1294.7813,410.3906 Q1294.2813,410.9688 1293.4844,411.2969 Q1292.4063,411.75 1291.1094,411.75 Q1289.5938,411.75 1288.3906,411.125 Q1287.4063,410.625 1286.7188,409.5625 Q1286.0313,408.4844 1286.0313,407.2031 L1286.0313,406.0469 Q1286.0313,404.7188 1286.6406,403.5781 Q1287.2656,402.4219 1288.3594,401.8125 Q1289.4531,401.1875 1290.6875,401.1875 Q1291.4219,401.1875 1292.0625,401.3594 Q1292.7188,401.5156 1293.2656,401.875 Z " fill="#000000"/>
            <text fill="#000000" font-family="sans-serif" font-size="14" lengthAdjust="spacing" textLength="123" x="1304.5" y="411.7285">DateTimeFormatter</text>
            <line style="stroke:#181818;stroke-width:0.5;" x1="1276.5" x2="1429.5" y1="422" y2="422"/>
            <line style="stroke:#181818;stroke-width:0.5;" x1="1276.5" x2="1429.5" y1="430" y2="430"/>
        </g>
        <!--class ChronoUnit-->
        <g id="elem_ChronoUnit">
            <rect codeLine="19" fill="#F1F1F1" height="48" id="ChronoUnit" rx="2.5" ry="2.5" style="stroke:#181818;stroke-width:0.5;" width="103" x="1115.5" y="390"/>
            <ellipse cx="1130.5" cy="406" fill="#ADD1B2" rx="11" ry="11" style="stroke:#181818;stroke-width:1.0;"/>
            <path d="M1133.2656,401.875 Q1133.4219,401.6563 1133.6094,401.5469 Q1133.7969,401.4375 1134.0156,401.4375 Q1134.3906,401.4375 1134.625,401.7031 Q1134.8594,401.9531 1134.8594,402.5625 L1134.8594,404.0156 Q1134.8594,404.625 1134.625,404.8906 Q1134.3906,405.1563 1134.0156,405.1563 Q1133.6719,405.1563 1133.4688,404.9531 Q1133.2656,404.7656 1133.1563,404.25 Q1133.1094,403.8906 1132.9219,403.7031 Q1132.5938,403.3281 1131.9844,403.1094 Q1131.375,402.8906 1130.75,402.8906 Q1129.9844,402.8906 1129.3438,403.2188 Q1128.7188,403.5469 1128.2188,404.2969 Q1127.7344,405.0469 1127.7344,406.0781 L1127.7344,407.1719 Q1127.7344,408.4063 1128.625,409.2344 Q1129.5156,410.0469 1131.1094,410.0469 Q1132.0469,410.0469 1132.7031,409.7969 Q1133.0938,409.6406 1133.5156,409.2031 Q1133.7813,408.9375 1133.9219,408.8594 Q1134.0781,408.7813 1134.2813,408.7813 Q1134.6094,408.7813 1134.8594,409.0469 Q1135.125,409.2969 1135.125,409.6406 Q1135.125,409.9844 1134.7813,410.3906 Q1134.2813,410.9688 1133.4844,411.2969 Q1132.4063,411.75 1131.1094,411.75 Q1129.5938,411.75 1128.3906,411.125 Q1127.4063,410.625 1126.7188,409.5625 Q1126.0313,408.4844 1126.0313,407.2031 L1126.0313,406.0469 Q1126.0313,404.7188 1126.6406,403.5781 Q1127.2656,402.4219 1128.3594,401.8125 Q1129.4531,401.1875 1130.6875,401.1875 Q1131.4219,401.1875 1132.0625,401.3594 Q1132.7188,401.5156 1133.2656,401.875 Z " fill="#000000"/>
            <text fill="#000000" font-family="sans-serif" font-size="14" lengthAdjust="spacing" textLength="71" x="1144.5" y="411.7285">ChronoUnit</text>
            <line style="stroke:#181818;stroke-width:0.5;" x1="1116.5" x2="1217.5" y1="422" y2="422"/>
            <line style="stroke:#181818;stroke-width:0.5;" x1="1116.5" x2="1217.5" y1="430" y2="430"/>
        </g>
        <!--class Scanner-->
        <g id="elem_Scanner">
            <rect codeLine="20" fill="#F1F1F1" height="48" id="Scanner" rx="2.5" ry="2.5" style="stroke:#181818;stroke-width:0.5;" width="85" x="46.5" y="390"/>
            <ellipse cx="61.5" cy="406" fill="#ADD1B2" rx="11" ry="11" style="stroke:#181818;stroke-width:1.0;"/>
            <path d="M64.2656,401.875 Q64.4219,401.6563 64.6094,401.5469 Q64.7969,401.4375 65.0156,401.4375 Q65.3906,401.4375 65.625,401.7031 Q65.8594,401.9531 65.8594,402.5625 L65.8594,404.0156 Q65.8594,404.625 65.625,404.8906 Q65.3906,405.1563 65.0156,405.1563 Q64.6719,405.1563 64.4688,404.9531 Q64.2656,404.7656 64.1563,404.25 Q64.1094,403.8906 63.9219,403.7031 Q63.5938,403.3281 62.9844,403.1094 Q62.375,402.8906 61.75,402.8906 Q60.9844,402.8906 60.3438,403.2188 Q59.7188,403.5469 59.2188,404.2969 Q58.7344,405.0469 58.7344,406.0781 L58.7344,407.1719 Q58.7344,408.4063 59.625,409.2344 Q60.5156,410.0469 62.1094,410.0469 Q63.0469,410.0469 63.7031,409.7969 Q64.0938,409.6406 64.5156,409.2031 Q64.7813,408.9375 64.9219,408.8594 Q65.0781,408.7813 65.2813,408.7813 Q65.6094,408.7813 65.8594,409.0469 Q66.125,409.2969 66.125,409.6406 Q66.125,409.9844 65.7813,410.3906 Q65.2813,410.9688 64.4844,411.2969 Q63.4063,411.75 62.1094,411.75 Q60.5938,411.75 59.3906,411.125 Q58.4063,410.625 57.7188,409.5625 Q57.0313,408.4844 57.0313,407.2031 L57.0313,406.0469 Q57.0313,404.7188 57.6406,403.5781 Q58.2656,402.4219 59.3594,401.8125 Q60.4531,401.1875 61.6875,401.1875 Q62.4219,401.1875 63.0625,401.3594 Q63.7188,401.5156 64.2656,401.875 Z " fill="#000000"/>
            <text fill="#000000" font-family="sans-serif" font-size="14" lengthAdjust="spacing" textLength="53" x="75.5" y="411.7285">Scanner</text>
            <line style="stroke:#181818;stroke-width:0.5;" x1="47.5" x2="130.5" y1="422" y2="422"/>
            <line style="stroke:#181818;stroke-width:0.5;" x1="47.5" x2="130.5" y1="430" y2="430"/>
        </g>
        <!--class Executors-->
        <g id="elem_Executors">
            <rect codeLine="21" fill="#F1F1F1" height="48" id="Executors" rx="2.5" ry="2.5" style="stroke:#181818;stroke-width:0.5;" width="94" x="403" y="390"/>
            <ellipse cx="418" cy="406" fill="#ADD1B2" rx="11" ry="11" style="stroke:#181818;stroke-width:1.0;"/>
            <path d="M420.7656,401.875 Q420.9219,401.6563 421.1094,401.5469 Q421.2969,401.4375 421.5156,401.4375 Q421.8906,401.4375 422.125,401.7031 Q422.3594,401.9531 422.3594,402.5625 L422.3594,404.0156 Q422.3594,404.625 422.125,404.8906 Q421.8906,405.1563 421.5156,405.1563 Q421.1719,405.1563 420.9688,404.9531 Q420.7656,404.7656 420.6563,404.25 Q420.6094,403.8906 420.4219,403.7031 Q420.0938,403.3281 419.4844,403.1094 Q418.875,402.8906 418.25,402.8906 Q417.4844,402.8906 416.8438,403.2188 Q416.2188,403.5469 415.7188,404.2969 Q415.2344,405.0469 415.2344,406.0781 L415.2344,407.1719 Q415.2344,408.4063 416.125,409.2344 Q417.0156,410.0469 418.6094,410.0469 Q419.5469,410.0469 420.2031,409.7969 Q420.5938,409.6406 421.0156,409.2031 Q421.2813,408.9375 421.4219,408.8594 Q421.5781,408.7813 421.7813,408.7813 Q422.1094,408.7813 422.3594,409.0469 Q422.625,409.2969 422.625,409.6406 Q422.625,409.9844 422.2813,410.3906 Q421.7813,410.9688 420.9844,411.2969 Q419.9063,411.75 418.6094,411.75 Q417.0938,411.75 415.8906,411.125 Q414.9063,410.625 414.2188,409.5625 Q413.5313,408.4844 413.5313,407.2031 L413.5313,406.0469 Q413.5313,404.7188 414.1406,403.5781 Q414.7656,402.4219 415.8594,401.8125 Q416.9531,401.1875 418.1875,401.1875 Q418.9219,401.1875 419.5625,401.3594 Q420.2188,401.5156 420.7656,401.875 Z " fill="#000000"/>
            <text fill="#000000" font-family="sans-serif" font-size="14" lengthAdjust="spacing" textLength="62" x="432" y="411.7285">Executors</text>
            <line style="stroke:#181818;stroke-width:0.5;" x1="404" x2="496" y1="422" y2="422"/>
            <line style="stroke:#181818;stroke-width:0.5;" x1="404" x2="496" y1="430" y2="430"/>
        </g>
        <!--class ScheduledExecutorService-->
        <g id="elem_ScheduledExecutorService">
            <rect codeLine="22" fill="#F1F1F1" height="48" id="ScheduledExecutorService" rx="2.5" ry="2.5" style="stroke:#181818;stroke-width:0.5;" width="201" x="166.5" y="390"/>
            <ellipse cx="181.5" cy="406" fill="#ADD1B2" rx="11" ry="11" style="stroke:#181818;stroke-width:1.0;"/>
            <path d="M184.2656,401.875 Q184.4219,401.6563 184.6094,401.5469 Q184.7969,401.4375 185.0156,401.4375 Q185.3906,401.4375 185.625,401.7031 Q185.8594,401.9531 185.8594,402.5625 L185.8594,404.0156 Q185.8594,404.625 185.625,404.8906 Q185.3906,405.1563 185.0156,405.1563 Q184.6719,405.1563 184.4688,404.9531 Q184.2656,404.7656 184.1563,404.25 Q184.1094,403.8906 183.9219,403.7031 Q183.5938,403.3281 182.9844,403.1094 Q182.375,402.8906 181.75,402.8906 Q180.9844,402.8906 180.3438,403.2188 Q179.7188,403.5469 179.2188,404.2969 Q178.7344,405.0469 178.7344,406.0781 L178.7344,407.1719 Q178.7344,408.4063 179.625,409.2344 Q180.5156,410.0469 182.1094,410.0469 Q183.0469,410.0469 183.7031,409.7969 Q184.0938,409.6406 184.5156,409.2031 Q184.7813,408.9375 184.9219,408.8594 Q185.0781,408.7813 185.2813,408.7813 Q185.6094,408.7813 185.8594,409.0469 Q186.125,409.2969 186.125,409.6406 Q186.125,409.9844 185.7813,410.3906 Q185.2813,410.9688 184.4844,411.2969 Q183.4063,411.75 182.1094,411.75 Q180.5938,411.75 179.3906,411.125 Q178.4063,410.625 177.7188,409.5625 Q177.0313,408.4844 177.0313,407.2031 L177.0313,406.0469 Q177.0313,404.7188 177.6406,403.5781 Q178.2656,402.4219 179.3594,401.8125 Q180.4531,401.1875 181.6875,401.1875 Q182.4219,401.1875 183.0625,401.3594 Q183.7188,401.5156 184.2656,401.875 Z " fill="#000000"/>
            <text fill="#000000" font-family="sans-serif" font-size="14" lengthAdjust="spacing" textLength="169" x="195.5" y="411.7285">ScheduledExecutorService</text>
            <line style="stroke:#181818;stroke-width:0.5;" x1="167.5" x2="366.5" y1="422" y2="422"/>
            <line style="stroke:#181818;stroke-width:0.5;" x1="167.5" x2="366.5" y1="430" y2="430"/>
        </g>
        <!--class TimeUnit-->
        <g id="elem_TimeUnit">
            <rect codeLine="23" fill="#F1F1F1" height="48" id="TimeUnit" rx="2.5" ry="2.5" style="stroke:#181818;stroke-width:0.5;" width="87" x="532.5" y="390"/>
            <ellipse cx="547.5" cy="406" fill="#ADD1B2" rx="11" ry="11" style="stroke:#181818;stroke-width:1.0;"/>
            <path d="M550.2656,401.875 Q550.4219,401.6563 550.6094,401.5469 Q550.7969,401.4375 551.0156,401.4375 Q551.3906,401.4375 551.625,401.7031 Q551.8594,401.9531 551.8594,402.5625 L551.8594,404.0156 Q551.8594,404.625 551.625,404.8906 Q551.3906,405.1563 551.0156,405.1563 Q550.6719,405.1563 550.4688,404.9531 Q550.2656,404.7656 550.1563,404.25 Q550.1094,403.8906 549.9219,403.7031 Q549.5938,403.3281 548.9844,403.1094 Q548.375,402.8906 547.75,402.8906 Q546.9844,402.8906 546.3438,403.2188 Q545.7188,403.5469 545.2188,404.2969 Q544.7344,405.0469 544.7344,406.0781 L544.7344,407.1719 Q544.7344,408.4063 545.625,409.2344 Q546.5156,410.0469 548.1094,410.0469 Q549.0469,410.0469 549.7031,409.7969 Q550.0938,409.6406 550.5156,409.2031 Q550.7813,408.9375 550.9219,408.8594 Q551.0781,408.7813 551.2813,408.7813 Q551.6094,408.7813 551.8594,409.0469 Q552.125,409.2969 552.125,409.6406 Q552.125,409.9844 551.7813,410.3906 Q551.2813,410.9688 550.4844,411.2969 Q549.4063,411.75 548.1094,411.75 Q546.5938,411.75 545.3906,411.125 Q544.4063,410.625 543.7188,409.5625 Q543.0313,408.4844 543.0313,407.2031 L543.0313,406.0469 Q543.0313,404.7188 543.6406,403.5781 Q544.2656,402.4219 545.3594,401.8125 Q546.4531,401.1875 547.6875,401.1875 Q548.4219,401.1875 549.0625,401.3594 Q549.7188,401.5156 550.2656,401.875 Z " fill="#000000"/>
            <text fill="#000000" font-family="sans-serif" font-size="14" lengthAdjust="spacing" textLength="55" x="561.5" y="411.7285">TimeUnit</text>
            <line style="stroke:#181818;stroke-width:0.5;" x1="533.5" x2="618.5" y1="422" y2="422"/>
            <line style="stroke:#181818;stroke-width:0.5;" x1="533.5" x2="618.5" y1="430" y2="430"/>
        </g>
        <!--class Communication-->
        <g id="elem_Communication">
            <rect codeLine="2" fill="#F1F1F1" height="48" id="Communication" rx="2.5" ry="2.5" style="stroke:#181818;stroke-width:0.5;" width="129" x="1353.5" y="130"/>
            <ellipse cx="1368.5" cy="146" fill="#ADD1B2" rx="11" ry="11" style="stroke:#181818;stroke-width:1.0;"/>
            <path d="M1371.2656,141.875 Q1371.4219,141.6563 1371.6094,141.5469 Q1371.7969,141.4375 1372.0156,141.4375 Q1372.3906,141.4375 1372.625,141.7031 Q1372.8594,141.9531 1372.8594,142.5625 L1372.8594,144.0156 Q1372.8594,144.625 1372.625,144.8906 Q1372.3906,145.1563 1372.0156,145.1563 Q1371.6719,145.1563 1371.4688,144.9531 Q1371.2656,144.7656 1371.1563,144.25 Q1371.1094,143.8906 1370.9219,143.7031 Q1370.5938,143.3281 1369.9844,143.1094 Q1369.375,142.8906 1368.75,142.8906 Q1367.9844,142.8906 1367.3438,143.2188 Q1366.7188,143.5469 1366.2188,144.2969 Q1365.7344,145.0469 1365.7344,146.0781 L1365.7344,147.1719 Q1365.7344,148.4063 1366.625,149.2344 Q1367.5156,150.0469 1369.1094,150.0469 Q1370.0469,150.0469 1370.7031,149.7969 Q1371.0938,149.6406 1371.5156,149.2031 Q1371.7813,148.9375 1371.9219,148.8594 Q1372.0781,148.7813 1372.2813,148.7813 Q1372.6094,148.7813 1372.8594,149.0469 Q1373.125,149.2969 1373.125,149.6406 Q1373.125,149.9844 1372.7813,150.3906 Q1372.2813,150.9688 1371.4844,151.2969 Q1370.4063,151.75 1369.1094,151.75 Q1367.5938,151.75 1366.3906,151.125 Q1365.4063,150.625 1364.7188,149.5625 Q1364.0313,148.4844 1364.0313,147.2031 L1364.0313,146.0469 Q1364.0313,144.7188 1364.6406,143.5781 Q1365.2656,142.4219 1366.3594,141.8125 Q1367.4531,141.1875 1368.6875,141.1875 Q1369.4219,141.1875 1370.0625,141.3594 Q1370.7188,141.5156 1371.2656,141.875 Z " fill="#000000"/>
            <text fill="#000000" font-family="sans-serif" font-size="14" lengthAdjust="spacing" textLength="97" x="1382.5" y="151.7285">Communication</text>
            <line style="stroke:#181818;stroke-width:0.5;" x1="1354.5" x2="1481.5" y1="162" y2="162"/>
            <line style="stroke:#181818;stroke-width:0.5;" x1="1354.5" x2="1481.5" y1="170" y2="170"/>
        </g>
        <!--class HomecareDT-->
        <g id="elem_HomecareDT">
            <rect codeLine="3" fill="#F1F1F1" height="48" id="HomecareDT" rx="2.5" ry="2.5" style="stroke:#181818;stroke-width:0.5;" width="115" x="1025.5" y="130"/>
            <ellipse cx="1040.5" cy="146" fill="#ADD1B2" rx="11" ry="11" style="stroke:#181818;stroke-width:1.0;"/>
            <path d="M1043.2656,141.875 Q1043.4219,141.6563 1043.6094,141.5469 Q1043.7969,141.4375 1044.0156,141.4375 Q1044.3906,141.4375 1044.625,141.7031 Q1044.8594,141.9531 1044.8594,142.5625 L1044.8594,144.0156 Q1044.8594,144.625 1044.625,144.8906 Q1044.3906,145.1563 1044.0156,145.1563 Q1043.6719,145.1563 1043.4688,144.9531 Q1043.2656,144.7656 1043.1563,144.25 Q1043.1094,143.8906 1042.9219,143.7031 Q1042.5938,143.3281 1041.9844,143.1094 Q1041.375,142.8906 1040.75,142.8906 Q1039.9844,142.8906 1039.3438,143.2188 Q1038.7188,143.5469 1038.2188,144.2969 Q1037.7344,145.0469 1037.7344,146.0781 L1037.7344,147.1719 Q1037.7344,148.4063 1038.625,149.2344 Q1039.5156,150.0469 1041.1094,150.0469 Q1042.0469,150.0469 1042.7031,149.7969 Q1043.0938,149.6406 1043.5156,149.2031 Q1043.7813,148.9375 1043.9219,148.8594 Q1044.0781,148.7813 1044.2813,148.7813 Q1044.6094,148.7813 1044.8594,149.0469 Q1045.125,149.2969 1045.125,149.6406 Q1045.125,149.9844 1044.7813,150.3906 Q1044.2813,150.9688 1043.4844,151.2969 Q1042.4063,151.75 1041.1094,151.75 Q1039.5938,151.75 1038.3906,151.125 Q1037.4063,150.625 1036.7188,149.5625 Q1036.0313,148.4844 1036.0313,147.2031 L1036.0313,146.0469 Q1036.0313,144.7188 1036.6406,143.5781 Q1037.2656,142.4219 1038.3594,141.8125 Q1039.4531,141.1875 1040.6875,141.1875 Q1041.4219,141.1875 1042.0625,141.3594 Q1042.7188,141.5156 1043.2656,141.875 Z " fill="#000000"/>
            <text fill="#000000" font-family="sans-serif" font-size="14" lengthAdjust="spacing" textLength="83" x="1054.5" y="151.7285">HomecareDT</text>
            <line style="stroke:#181818;stroke-width:0.5;" x1="1026.5" x2="1139.5" y1="162" y2="162"/>
            <line style="stroke:#181818;stroke-width:0.5;" x1="1026.5" x2="1139.5" y1="170" y2="170"/>
        </g>
        <!--class Hygiene-->
        <g id="elem_Hygiene">
            <rect codeLine="4" fill="#F1F1F1" height="48" id="Hygiene" rx="2.5" ry="2.5" style="stroke:#181818;stroke-width:0.5;" width="83" x="1904.5" y="130"/>
            <ellipse cx="1919.5" cy="146" fill="#ADD1B2" rx="11" ry="11" style="stroke:#181818;stroke-width:1.0;"/>
            <path d="M1922.2656,141.875 Q1922.4219,141.6563 1922.6094,141.5469 Q1922.7969,141.4375 1923.0156,141.4375 Q1923.3906,141.4375 1923.625,141.7031 Q1923.8594,141.9531 1923.8594,142.5625 L1923.8594,144.0156 Q1923.8594,144.625 1923.625,144.8906 Q1923.3906,145.1563 1923.0156,145.1563 Q1922.6719,145.1563 1922.4688,144.9531 Q1922.2656,144.7656 1922.1563,144.25 Q1922.1094,143.8906 1921.9219,143.7031 Q1921.5938,143.3281 1920.9844,143.1094 Q1920.375,142.8906 1919.75,142.8906 Q1918.9844,142.8906 1918.3438,143.2188 Q1917.7188,143.5469 1917.2188,144.2969 Q1916.7344,145.0469 1916.7344,146.0781 L1916.7344,147.1719 Q1916.7344,148.4063 1917.625,149.2344 Q1918.5156,150.0469 1920.1094,150.0469 Q1921.0469,150.0469 1921.7031,149.7969 Q1922.0938,149.6406 1922.5156,149.2031 Q1922.7813,148.9375 1922.9219,148.8594 Q1923.0781,148.7813 1923.2813,148.7813 Q1923.6094,148.7813 1923.8594,149.0469 Q1924.125,149.2969 1924.125,149.6406 Q1924.125,149.9844 1923.7813,150.3906 Q1923.2813,150.9688 1922.4844,151.2969 Q1921.4063,151.75 1920.1094,151.75 Q1918.5938,151.75 1917.3906,151.125 Q1916.4063,150.625 1915.7188,149.5625 Q1915.0313,148.4844 1915.0313,147.2031 L1915.0313,146.0469 Q1915.0313,144.7188 1915.6406,143.5781 Q1916.2656,142.4219 1917.3594,141.8125 Q1918.4531,141.1875 1919.6875,141.1875 Q1920.4219,141.1875 1921.0625,141.3594 Q1921.7188,141.5156 1922.2656,141.875 Z " fill="#000000"/>
            <text fill="#000000" font-family="sans-serif" font-size="14" lengthAdjust="spacing" textLength="51" x="1933.5" y="151.7285">Hygiene</text>
            <line style="stroke:#181818;stroke-width:0.5;" x1="1905.5" x2="1986.5" y1="162" y2="162"/>
            <line style="stroke:#181818;stroke-width:0.5;" x1="1905.5" x2="1986.5" y1="170" y2="170"/>
        </g>
        <!--class IoTDeviceMonitor-->
        <g id="elem_IoTDeviceMonitor">
            <rect codeLine="5" fill="#F1F1F1" height="48" id="IoTDeviceMonitor" rx="2.5" ry="2.5" style="stroke:#181818;stroke-width:0.5;" width="142" x="1176" y="130"/>
            <ellipse cx="1191" cy="146" fill="#ADD1B2" rx="11" ry="11" style="stroke:#181818;stroke-width:1.0;"/>
            <path d="M1193.7656,141.875 Q1193.9219,141.6563 1194.1094,141.5469 Q1194.2969,141.4375 1194.5156,141.4375 Q1194.8906,141.4375 1195.125,141.7031 Q1195.3594,141.9531 1195.3594,142.5625 L1195.3594,144.0156 Q1195.3594,144.625 1195.125,144.8906 Q1194.8906,145.1563 1194.5156,145.1563 Q1194.1719,145.1563 1193.9688,144.9531 Q1193.7656,144.7656 1193.6563,144.25 Q1193.6094,143.8906 1193.4219,143.7031 Q1193.0938,143.3281 1192.4844,143.1094 Q1191.875,142.8906 1191.25,142.8906 Q1190.4844,142.8906 1189.8438,143.2188 Q1189.2188,143.5469 1188.7188,144.2969 Q1188.2344,145.0469 1188.2344,146.0781 L1188.2344,147.1719 Q1188.2344,148.4063 1189.125,149.2344 Q1190.0156,150.0469 1191.6094,150.0469 Q1192.5469,150.0469 1193.2031,149.7969 Q1193.5938,149.6406 1194.0156,149.2031 Q1194.2813,148.9375 1194.4219,148.8594 Q1194.5781,148.7813 1194.7813,148.7813 Q1195.1094,148.7813 1195.3594,149.0469 Q1195.625,149.2969 1195.625,149.6406 Q1195.625,149.9844 1195.2813,150.3906 Q1194.7813,150.9688 1193.9844,151.2969 Q1192.9063,151.75 1191.6094,151.75 Q1190.0938,151.75 1188.8906,151.125 Q1187.9063,150.625 1187.2188,149.5625 Q1186.5313,148.4844 1186.5313,147.2031 L1186.5313,146.0469 Q1186.5313,144.7188 1187.1406,143.5781 Q1187.7656,142.4219 1188.8594,141.8125 Q1189.9531,141.1875 1191.1875,141.1875 Q1191.9219,141.1875 1192.5625,141.3594 Q1193.2188,141.5156 1193.7656,141.875 Z " fill="#000000"/>
            <text fill="#000000" font-family="sans-serif" font-size="14" lengthAdjust="spacing" textLength="110" x="1205" y="151.7285">IoTDeviceMonitor</text>
            <line style="stroke:#181818;stroke-width:0.5;" x1="1177" x2="1317" y1="162" y2="162"/>
            <line style="stroke:#181818;stroke-width:0.5;" x1="1177" x2="1317" y1="170" y2="170"/>
        </g>
        <!--class LSO-->
        <g id="elem_LSO">
            <rect codeLine="6" fill="#F1F1F1" height="48" id="LSO" rx="2.5" ry="2.5" style="stroke:#181818;stroke-width:0.5;" width="60" x="2135" y="130"/>
            <ellipse cx="2150" cy="146" fill="#ADD1B2" rx="11" ry="11" style="stroke:#181818;stroke-width:1.0;"/>
            <path d="M2152.7656,141.875 Q2152.9219,141.6563 2153.1094,141.5469 Q2153.2969,141.4375 2153.5156,141.4375 Q2153.8906,141.4375 2154.125,141.7031 Q2154.3594,141.9531 2154.3594,142.5625 L2154.3594,144.0156 Q2154.3594,144.625 2154.125,144.8906 Q2153.8906,145.1563 2153.5156,145.1563 Q2153.1719,145.1563 2152.9688,144.9531 Q2152.7656,144.7656 2152.6563,144.25 Q2152.6094,143.8906 2152.4219,143.7031 Q2152.0938,143.3281 2151.4844,143.1094 Q2150.875,142.8906 2150.25,142.8906 Q2149.4844,142.8906 2148.8438,143.2188 Q2148.2188,143.5469 2147.7188,144.2969 Q2147.2344,145.0469 2147.2344,146.0781 L2147.2344,147.1719 Q2147.2344,148.4063 2148.125,149.2344 Q2149.0156,150.0469 2150.6094,150.0469 Q2151.5469,150.0469 2152.2031,149.7969 Q2152.5938,149.6406 2153.0156,149.2031 Q2153.2813,148.9375 2153.4219,148.8594 Q2153.5781,148.7813 2153.7813,148.7813 Q2154.1094,148.7813 2154.3594,149.0469 Q2154.625,149.2969 2154.625,149.6406 Q2154.625,149.9844 2154.2813,150.3906 Q2153.7813,150.9688 2152.9844,151.2969 Q2151.9063,151.75 2150.6094,151.75 Q2149.0938,151.75 2147.8906,151.125 Q2146.9063,150.625 2146.2188,149.5625 Q2145.5313,148.4844 2145.5313,147.2031 L2145.5313,146.0469 Q2145.5313,144.7188 2146.1406,143.5781 Q2146.7656,142.4219 2147.8594,141.8125 Q2148.9531,141.1875 2150.1875,141.1875 Q2150.9219,141.1875 2151.5625,141.3594 Q2152.2188,141.5156 2152.7656,141.875 Z " fill="#000000"/>
            <text fill="#000000" font-family="sans-serif" font-size="14" lengthAdjust="spacing" textLength="28" x="2164" y="151.7285">LSO</text>
            <line style="stroke:#181818;stroke-width:0.5;" x1="2136" x2="2194" y1="162" y2="162"/>
            <line style="stroke:#181818;stroke-width:0.5;" x1="2136" x2="2194" y1="170" y2="170"/>
        </g>
        <!--class Nutrition-->
        <g id="elem_Nutrition">
            <rect codeLine="7" fill="#F1F1F1" height="48" id="Nutrition" rx="2.5" ry="2.5" style="stroke:#181818;stroke-width:0.5;" width="84" x="1518" y="130"/>
            <ellipse cx="1533" cy="146" fill="#ADD1B2" rx="11" ry="11" style="stroke:#181818;stroke-width:1.0;"/>
            <path d="M1535.7656,141.875 Q1535.9219,141.6563 1536.1094,141.5469 Q1536.2969,141.4375 1536.5156,141.4375 Q1536.8906,141.4375 1537.125,141.7031 Q1537.3594,141.9531 1537.3594,142.5625 L1537.3594,144.0156 Q1537.3594,144.625 1537.125,144.8906 Q1536.8906,145.1563 1536.5156,145.1563 Q1536.1719,145.1563 1535.9688,144.9531 Q1535.7656,144.7656 1535.6563,144.25 Q1535.6094,143.8906 1535.4219,143.7031 Q1535.0938,143.3281 1534.4844,143.1094 Q1533.875,142.8906 1533.25,142.8906 Q1532.4844,142.8906 1531.8438,143.2188 Q1531.2188,143.5469 1530.7188,144.2969 Q1530.2344,145.0469 1530.2344,146.0781 L1530.2344,147.1719 Q1530.2344,148.4063 1531.125,149.2344 Q1532.0156,150.0469 1533.6094,150.0469 Q1534.5469,150.0469 1535.2031,149.7969 Q1535.5938,149.6406 1536.0156,149.2031 Q1536.2813,148.9375 1536.4219,148.8594 Q1536.5781,148.7813 1536.7813,148.7813 Q1537.1094,148.7813 1537.3594,149.0469 Q1537.625,149.2969 1537.625,149.6406 Q1537.625,149.9844 1537.2813,150.3906 Q1536.7813,150.9688 1535.9844,151.2969 Q1534.9063,151.75 1533.6094,151.75 Q1532.0938,151.75 1530.8906,151.125 Q1529.9063,150.625 1529.2188,149.5625 Q1528.5313,148.4844 1528.5313,147.2031 L1528.5313,146.0469 Q1528.5313,144.7188 1529.1406,143.5781 Q1529.7656,142.4219 1530.8594,141.8125 Q1531.9531,141.1875 1533.1875,141.1875 Q1533.9219,141.1875 1534.5625,141.3594 Q1535.2188,141.5156 1535.7656,141.875 Z " fill="#000000"/>
            <text fill="#000000" font-family="sans-serif" font-size="14" lengthAdjust="spacing" textLength="52" x="1547" y="151.7285">Nutrition</text>
            <line style="stroke:#181818;stroke-width:0.5;" x1="1519" x2="1601" y1="162" y2="162"/>
            <line style="stroke:#181818;stroke-width:0.5;" x1="1519" x2="1601" y1="170" y2="170"/>
        </g>
        <!--class Person-->
        <g id="elem_Person">
            <rect codeLine="8" fill="#F1F1F1" height="48" id="Person" rx="2.5" ry="2.5" style="stroke:#181818;stroke-width:0.5;" width="77" x="2022.5" y="130"/>
            <ellipse cx="2037.5" cy="146" fill="#ADD1B2" rx="11" ry="11" style="stroke:#181818;stroke-width:1.0;"/>
            <path d="M2040.2656,141.875 Q2040.4219,141.6563 2040.6094,141.5469 Q2040.7969,141.4375 2041.0156,141.4375 Q2041.3906,141.4375 2041.625,141.7031 Q2041.8594,141.9531 2041.8594,142.5625 L2041.8594,144.0156 Q2041.8594,144.625 2041.625,144.8906 Q2041.3906,145.1563 2041.0156,145.1563 Q2040.6719,145.1563 2040.4688,144.9531 Q2040.2656,144.7656 2040.1563,144.25 Q2040.1094,143.8906 2039.9219,143.7031 Q2039.5938,143.3281 2038.9844,143.1094 Q2038.375,142.8906 2037.75,142.8906 Q2036.9844,142.8906 2036.3438,143.2188 Q2035.7188,143.5469 2035.2188,144.2969 Q2034.7344,145.0469 2034.7344,146.0781 L2034.7344,147.1719 Q2034.7344,148.4063 2035.625,149.2344 Q2036.5156,150.0469 2038.1094,150.0469 Q2039.0469,150.0469 2039.7031,149.7969 Q2040.0938,149.6406 2040.5156,149.2031 Q2040.7813,148.9375 2040.9219,148.8594 Q2041.0781,148.7813 2041.2813,148.7813 Q2041.6094,148.7813 2041.8594,149.0469 Q2042.125,149.2969 2042.125,149.6406 Q2042.125,149.9844 2041.7813,150.3906 Q2041.2813,150.9688 2040.4844,151.2969 Q2039.4063,151.75 2038.1094,151.75 Q2036.5938,151.75 2035.3906,151.125 Q2034.4063,150.625 2033.7188,149.5625 Q2033.0313,148.4844 2033.0313,147.2031 L2033.0313,146.0469 Q2033.0313,144.7188 2033.6406,143.5781 Q2034.2656,142.4219 2035.3594,141.8125 Q2036.4531,141.1875 2037.6875,141.1875 Q2038.4219,141.1875 2039.0625,141.3594 Q2039.7188,141.5156 2040.2656,141.875 Z " fill="#000000"/>
            <text fill="#000000" font-family="sans-serif" font-size="14" lengthAdjust="spacing" textLength="45" x="2051.5" y="151.7285">Person</text>
            <line style="stroke:#181818;stroke-width:0.5;" x1="2023.5" x2="2098.5" y1="162" y2="162"/>
            <line style="stroke:#181818;stroke-width:0.5;" x1="2023.5" x2="2098.5" y1="170" y2="170"/>
        </g>
        <!--class Transportation-->
        <g id="elem_Transportation">
            <rect codeLine="9" fill="#F1F1F1" height="48" id="Transportation" rx="2.5" ry="2.5" style="stroke:#181818;stroke-width:0.5;" width="125" x="1744.5" y="130"/>
            <ellipse cx="1759.5" cy="146" fill="#ADD1B2" rx="11" ry="11" style="stroke:#181818;stroke-width:1.0;"/>
            <path d="M1762.2656,141.875 Q1762.4219,141.6563 1762.6094,141.5469 Q1762.7969,141.4375 1763.0156,141.4375 Q1763.3906,141.4375 1763.625,141.7031 Q1763.8594,141.9531 1763.8594,142.5625 L1763.8594,144.0156 Q1763.8594,144.625 1763.625,144.8906 Q1763.3906,145.1563 1763.0156,145.1563 Q1762.6719,145.1563 1762.4688,144.9531 Q1762.2656,144.7656 1762.1563,144.25 Q1762.1094,143.8906 1761.9219,143.7031 Q1761.5938,143.3281 1760.9844,143.1094 Q1760.375,142.8906 1759.75,142.8906 Q1758.9844,142.8906 1758.3438,143.2188 Q1757.7188,143.5469 1757.2188,144.2969 Q1756.7344,145.0469 1756.7344,146.0781 L1756.7344,147.1719 Q1756.7344,148.4063 1757.625,149.2344 Q1758.5156,150.0469 1760.1094,150.0469 Q1761.0469,150.0469 1761.7031,149.7969 Q1762.0938,149.6406 1762.5156,149.2031 Q1762.7813,148.9375 1762.9219,148.8594 Q1763.0781,148.7813 1763.2813,148.7813 Q1763.6094,148.7813 1763.8594,149.0469 Q1764.125,149.2969 1764.125,149.6406 Q1764.125,149.9844 1763.7813,150.3906 Q1763.2813,150.9688 1762.4844,151.2969 Q1761.4063,151.75 1760.1094,151.75 Q1758.5938,151.75 1757.3906,151.125 Q1756.4063,150.625 1755.7188,149.5625 Q1755.0313,148.4844 1755.0313,147.2031 L1755.0313,146.0469 Q1755.0313,144.7188 1755.6406,143.5781 Q1756.2656,142.4219 1757.3594,141.8125 Q1758.4531,141.1875 1759.6875,141.1875 Q1760.4219,141.1875 1761.0625,141.3594 Q1761.7188,141.5156 1762.2656,141.875 Z " fill="#000000"/>
            <text fill="#000000" font-family="sans-serif" font-size="14" lengthAdjust="spacing" textLength="93" x="1773.5" y="151.7285">Transportation</text>
            <line style="stroke:#181818;stroke-width:0.5;" x1="1745.5" x2="1868.5" y1="162" y2="162"/>
            <line style="stroke:#181818;stroke-width:0.5;" x1="1745.5" x2="1868.5" y1="170" y2="170"/>
        </g>
        <!--class Travel-->
        <g id="elem_Travel">
            <rect codeLine="10" fill="#F1F1F1" height="48" id="Travel" rx="2.5" ry="2.5" style="stroke:#181818;stroke-width:0.5;" width="72" x="1637" y="130"/>
            <ellipse cx="1652" cy="146" fill="#ADD1B2" rx="11" ry="11" style="stroke:#181818;stroke-width:1.0;"/>
            <path d="M1654.7656,141.875 Q1654.9219,141.6563 1655.1094,141.5469 Q1655.2969,141.4375 1655.5156,141.4375 Q1655.8906,141.4375 1656.125,141.7031 Q1656.3594,141.9531 1656.3594,142.5625 L1656.3594,144.0156 Q1656.3594,144.625 1656.125,144.8906 Q1655.8906,145.1563 1655.5156,145.1563 Q1655.1719,145.1563 1654.9688,144.9531 Q1654.7656,144.7656 1654.6563,144.25 Q1654.6094,143.8906 1654.4219,143.7031 Q1654.0938,143.3281 1653.4844,143.1094 Q1652.875,142.8906 1652.25,142.8906 Q1651.4844,142.8906 1650.8438,143.2188 Q1650.2188,143.5469 1649.7188,144.2969 Q1649.2344,145.0469 1649.2344,146.0781 L1649.2344,147.1719 Q1649.2344,148.4063 1650.125,149.2344 Q1651.0156,150.0469 1652.6094,150.0469 Q1653.5469,150.0469 1654.2031,149.7969 Q1654.5938,149.6406 1655.0156,149.2031 Q1655.2813,148.9375 1655.4219,148.8594 Q1655.5781,148.7813 1655.7813,148.7813 Q1656.1094,148.7813 1656.3594,149.0469 Q1656.625,149.2969 1656.625,149.6406 Q1656.625,149.9844 1656.2813,150.3906 Q1655.7813,150.9688 1654.9844,151.2969 Q1653.9063,151.75 1652.6094,151.75 Q1651.0938,151.75 1649.8906,151.125 Q1648.9063,150.625 1648.2188,149.5625 Q1647.5313,148.4844 1647.5313,147.2031 L1647.5313,146.0469 Q1647.5313,144.7188 1648.1406,143.5781 Q1648.7656,142.4219 1649.8594,141.8125 Q1650.9531,141.1875 1652.1875,141.1875 Q1652.9219,141.1875 1653.5625,141.3594 Q1654.2188,141.5156 1654.7656,141.875 Z " fill="#000000"/>
            <text fill="#000000" font-family="sans-serif" font-size="14" lengthAdjust="spacing" textLength="40" x="1666" y="151.7285">Travel</text>
            <line style="stroke:#181818;stroke-width:0.5;" x1="1638" x2="1708" y1="162" y2="162"/>
            <line style="stroke:#181818;stroke-width:0.5;" x1="1638" x2="1708" y1="170" y2="170"/>
        </g>
        <!--link Communication to Override-->
        <g id="link_Communication_Override">
            <path codeLine="24" d="M1430.32,178 C1444.11,201.04 1468.79,235.13 1501,250 C1534.14,265.3 2126.75,239.13 2158,258 C2206.08,287.03 2226.9552,348.2541 2235.7352,383.9041 " fill="none" id="Communication-to-Override" style="stroke:#181818;stroke-width:1.0;stroke-dasharray:7.0,7.0;"/>
            <polygon fill="#181818" points="2237.17,389.73,2238.9017,380.0346,2235.9743,384.8751,2231.1338,381.9477,2237.17,389.73" style="stroke:#181818;stroke-width:1.0;"/>
        </g>
        <!--link Communication to LocalDateTime-->
        <g id="link_Communication_LocalDateTime">
            <path codeLine="25" d="M1405.58,178.28 C1391.92,201.19 1367.64,234.86 1336,250 C1312.23,261.37 1121.34,244.03 1099,258 C1051.64,287.63 1031.4281,348.5828 1022.9981,384.0328 " fill="none" id="Communication-to-LocalDateTime" style="stroke:#181818;stroke-width:1.0;stroke-dasharray:7.0,7.0;"/>
            <polygon fill="#181818" points="1021.61,389.87,1027.5836,382.0396,1022.7667,385.0056,1019.8007,380.1888,1021.61,389.87" style="stroke:#181818;stroke-width:1.0;"/>
        </g>
        <!--link HomecareDT to Duration-->
        <g id="link_HomecareDT_Duration">
            <path codeLine="26" d="M1025.38,162.2 C963.18,172.84 864.88,198.4 804,258 C766.8,294.41 752.7593,350.3338 747.0993,383.8438 " fill="none" id="HomecareDT-to-Duration" style="stroke:#181818;stroke-width:1.0;stroke-dasharray:7.0,7.0;"/>
            <polygon fill="#181818" points="746.1,389.76,751.543,381.5519,746.9327,384.8298,743.6548,380.2195,746.1,389.76" style="stroke:#181818;stroke-width:1.0;"/>
        </g>
        <!--link HomecareDT to LocalDateTime-->
        <g id="link_HomecareDT_LocalDateTime">
            <path codeLine="27" d="M1077.03,178.35 C1064.46,227.47 1036.9068,335.1671 1024.3968,384.0771 " fill="none" id="HomecareDT-to-LocalDateTime" style="stroke:#181818;stroke-width:1.0;stroke-dasharray:7.0,7.0;"/>
            <polygon fill="#181818" points="1022.91,389.89,1029.0154,382.1619,1024.149,385.0459,1021.2649,380.1795,1022.91,389.89" style="stroke:#181818;stroke-width:1.0;"/>
        </g>
        <!--link HomecareDT to LocalTime-->
        <g id="link_HomecareDT_LocalTime">
            <path codeLine="28" d="M1037.41,178.02 C1005.45,196.09 963.67,223.86 936,258 C903.22,298.45 885.6646,351.7822 877.0646,384.0622 " fill="none" id="HomecareDT-to-LocalTime" style="stroke:#181818;stroke-width:1.0;stroke-dasharray:7.0,7.0;"/>
            <polygon fill="#181818" points="875.52,389.86,881.7021,382.1931,876.8072,385.0285,873.9718,380.1336,875.52,389.86" style="stroke:#181818;stroke-width:1.0;"/>
        </g>
        <!--link HomecareDT to DateTimeFormatter-->
        <g id="link_HomecareDT_DateTimeFormatter">
            <path codeLine="29" d="M1094.54,178.22 C1107.08,200.73 1129.35,233.78 1159,250 C1188.8,266.3 1205.4,241.35 1235,258 C1288.94,288.35 1323.4811,349.0925 1340.2711,384.3625 " fill="none" id="HomecareDT-to-DateTimeFormatter" style="stroke:#181818;stroke-width:1.0;stroke-dasharray:7.0,7.0;"/>
            <polygon fill="#181818" points="1342.85,389.78,1342.5932,379.9345,1340.7009,385.2654,1335.3699,383.3731,1342.85,389.78" style="stroke:#181818;stroke-width:1.0;"/>
        </g>
        <!--link HomecareDT to ChronoUnit-->
        <g id="link_HomecareDT_ChronoUnit">
            <path codeLine="30" d="M1090.6,178.35 C1106.6,227.47 1141.6919,335.275 1157.6219,384.185 " fill="none" id="HomecareDT-to-ChronoUnit" style="stroke:#181818;stroke-width:1.0;stroke-dasharray:7.0,7.0;"/>
            <polygon fill="#181818" points="1159.48,389.89,1160.4962,380.0937,1157.9316,385.1358,1152.8895,382.5712,1159.48,389.89" style="stroke:#181818;stroke-width:1.0;"/>
        </g>
        <!--link HomecareDT to Scanner-->
        <g id="link_HomecareDT_Scanner">
            <path codeLine="31" d="M1025.24,157.93 C832.5,168.18 219.7,204.69 150,258 C108.08,290.06 95.633,349.2213 91.533,383.9713 " fill="none" id="HomecareDT-to-Scanner" style="stroke:#181818;stroke-width:1.0;stroke-dasharray:7.0,7.0;"/>
            <polygon fill="#181818" points="90.83,389.93,95.857,381.4607,91.4159,384.9644,87.9121,380.5233,90.83,389.93" style="stroke:#181818;stroke-width:1.0;"/>
        </g>
        <!--link HomecareDT to Executors-->
        <g id="link_HomecareDT_Executors">
            <path codeLine="32" d="M1025.05,158.59 C896.63,167.61 593.24,195.17 515,258 C473.59,291.25 459.1472,349.6436 453.7072,384.0436 " fill="none" id="HomecareDT-to-Executors" style="stroke:#181818;stroke-width:1.0;stroke-dasharray:7.0,7.0;"/>
            <polygon fill="#181818" points="452.77,389.97,458.1267,381.7053,453.551,385.0314,450.2249,380.4557,452.77,389.97" style="stroke:#181818;stroke-width:1.0;"/>
        </g>
        <!--link HomecareDT to ScheduledExecutorService-->
        <g id="link_HomecareDT_ScheduledExecutorService">
            <path codeLine="33" d="M1025.42,157.94 C878.47,166.32 493.51,193.94 385,258 C331.85,289.38 297.1401,349.3972 280.0801,384.3772 " fill="none" id="HomecareDT-to-ScheduledExecutorService" style="stroke:#181818;stroke-width:1.0;stroke-dasharray:7.0,7.0;"/>
            <polygon fill="#181818" points="277.45,389.77,284.9904,383.4342,279.6418,385.276,277.8,379.9274,277.45,389.77" style="stroke:#181818;stroke-width:1.0;"/>
        </g>
        <!--link HomecareDT to TimeUnit-->
        <g id="link_HomecareDT_TimeUnit">
            <path codeLine="34" d="M1025.31,157.49 C942.76,163.61 789.3,184.81 684,258 C635.12,291.98 603.7447,350.2287 588.1847,384.4287 " fill="none" id="HomecareDT-to-TimeUnit" style="stroke:#181818;stroke-width:1.0;stroke-dasharray:7.0,7.0;"/>
            <polygon fill="#181818" points="585.7,389.89,593.068,383.3545,587.7706,385.3389,585.7862,380.0415,585.7,389.89" style="stroke:#181818;stroke-width:1.0;"/>
        </g>
        <!--link IoTDeviceMonitor to BufferedReader-->
        <g id="link_IoTDeviceMonitor_BufferedReader">
            <path codeLine="35" d="M1260.64,178.05 C1275.76,201.11 1302.5,235.23 1336,250 C1369.3,264.68 1959.85,239.19 1991,258 C2039.08,287.03 2059.9552,348.2541 2068.7352,383.9041 " fill="none" id="IoTDeviceMonitor-to-BufferedReader" style="stroke:#181818;stroke-width:1.0;stroke-dasharray:7.0,7.0;"/>
            <polygon fill="#181818" points="2070.17,389.73,2071.9017,380.0346,2068.9743,384.8751,2064.1338,381.9477,2070.17,389.73" style="stroke:#181818;stroke-width:1.0;"/>
        </g>
        <!--link IoTDeviceMonitor to InputStreamReader-->
        <g id="link_IoTDeviceMonitor_InputStreamReader">
            <path codeLine="36" d="M1260.65,178.01 C1275.79,201.04 1302.54,235.14 1336,250 C1380.89,269.94 1734.19,235.79 1778,258 C1833.51,286.13 1867.7065,348.4336 1883.9465,384.3236 " fill="none" id="IoTDeviceMonitor-to-InputStreamReader" style="stroke:#181818;stroke-width:1.0;stroke-dasharray:7.0,7.0;"/>
            <polygon fill="#181818" points="1886.42,389.79,1886.354,379.9414,1884.3587,385.2347,1879.0654,383.2394,1886.42,389.79" style="stroke:#181818;stroke-width:1.0;"/>
        </g>
        <!--link IoTDeviceMonitor to HttpURLConnection-->
        <g id="link_IoTDeviceMonitor_HttpURLConnection">
            <path codeLine="37" d="M1260.98,178.34 C1276.19,201.29 1302.85,235 1336,250 C1361.52,261.55 1563.74,243.98 1588,258 C1638.29,287.06 1663.9603,348.3922 1675.5103,384.0322 " fill="none" id="IoTDeviceMonitor-to-HttpURLConnection" style="stroke:#181818;stroke-width:1.0;stroke-dasharray:7.0,7.0;"/>
            <polygon fill="#181818" points="1677.36,389.74,1678.3906,379.9452,1675.8186,384.9835,1670.7802,382.4115,1677.36,389.74" style="stroke:#181818;stroke-width:1.0;"/>
        </g>
        <!--link IoTDeviceMonitor to URL-->
        <g id="link_IoTDeviceMonitor_URL">
            <path codeLine="38" d="M1261.1,178.07 C1276.42,200.8 1303.16,234.34 1336,250 C1358.32,260.64 1425.9,245.1 1447,258 C1496.27,288.13 1521.3693,348.9861 1532.6793,384.2861 " fill="none" id="IoTDeviceMonitor-to-URL" style="stroke:#181818;stroke-width:1.0;stroke-dasharray:7.0,7.0;"/>
            <polygon fill="#181818" points="1534.51,390,1535.5732,380.2087,1532.9844,385.2384,1527.9547,382.6496,1534.51,390" style="stroke:#181818;stroke-width:1.0;"/>
        </g>
        <!--link IoTDeviceMonitor to Executors-->
        <g id="link_IoTDeviceMonitor_Executors">
            <path codeLine="39" d="M1233.36,178.05 C1218.24,201.11 1191.5,235.23 1158,250 C1125.31,264.41 544.62,238.03 515,258 C470.6,287.93 457.1992,348.637 452.7492,383.997 " fill="none" id="IoTDeviceMonitor-to-Executors" style="stroke:#181818;stroke-width:1.0;stroke-dasharray:7.0,7.0;"/>
            <polygon fill="#181818" points="452,389.95,457.0925,381.5199,452.6243,384.9891,449.1551,380.521,452,389.95" style="stroke:#181818;stroke-width:1.0;"/>
        </g>
        <!--link IoTDeviceMonitor to ScheduledExecutorService-->
        <g id="link_IoTDeviceMonitor_ScheduledExecutorService">
            <path codeLine="40" d="M1233.37,178.06 C1218.25,201.14 1191.52,235.27 1158,250 C1118.68,267.28 423.38,238.73 385,258 C329.38,285.92 295.2257,348.3101 279.0157,384.2701 " fill="none" id="IoTDeviceMonitor-to-ScheduledExecutorService" style="stroke:#181818;stroke-width:1.0;stroke-dasharray:7.0,7.0;"/>
            <polygon fill="#181818" points="276.55,389.74,283.8952,383.1789,278.6048,385.1817,276.602,379.8913,276.55,389.74" style="stroke:#181818;stroke-width:1.0;"/>
        </g>
        <!--link IoTDeviceMonitor to TimeUnit-->
        <g id="link_IoTDeviceMonitor_TimeUnit">
            <path codeLine="41" d="M1233.35,178.02 C1218.22,201.06 1191.47,235.16 1158,250 C1133.92,260.68 707.24,245.62 684,258 C630.74,286.38 600.4442,348.4556 586.3742,384.2656 " fill="none" id="IoTDeviceMonitor-to-TimeUnit" style="stroke:#181818;stroke-width:1.0;stroke-dasharray:7.0,7.0;"/>
            <polygon fill="#181818" points="584.18,389.85,591.1942,382.9361,586.0085,385.1963,583.7483,380.0106,584.18,389.85" style="stroke:#181818;stroke-width:1.0;"/>
        </g>
        <!--link LSO to Override-->
        <g id="link_LSO_Override">
            <path codeLine="42" d="M2171.97,178.35 C2186.63,227.47 2218.7838,335.2307 2233.3838,384.1407 " fill="none" id="LSO-to-Override" style="stroke:#181818;stroke-width:1.0;stroke-dasharray:7.0,7.0;"/>
            <polygon fill="#181818" points="2235.1,389.89,2236.3586,380.1219,2233.6698,385.0989,2228.6928,382.4102,2235.1,389.89" style="stroke:#181818;stroke-width:1.0;"/>
        </g>
        <!--link Person to Override-->
        <g id="link_Person_Override">
            <path codeLine="43" d="M2068.74,178.41 C2077.27,200.41 2093.16,232.49 2118,250 C2132.82,260.44 2143.41,247.23 2158,258 C2202.82,291.08 2224.7179,349.7019 2234.5879,384.1619 " fill="none" id="Person-to-Override" style="stroke:#181818;stroke-width:1.0;stroke-dasharray:7.0,7.0;"/>
            <polygon fill="#181818" points="2236.24,389.93,2237.6073,380.1765,2234.8633,385.1233,2229.9165,382.3793,2236.24,389.93" style="stroke:#181818;stroke-width:1.0;"/>
        </g>
        <!--link Transportation to Override-->
        <g id="link_Transportation_Override">
            <path codeLine="44" d="M1818.96,178.3 C1832.16,201.21 1855.74,234.89 1887,250 C1914.12,263.11 2132.35,242.21 2158,258 C2205.83,287.44 2226.7975,348.4985 2235.6575,384.0085 " fill="none" id="Transportation-to-Override" style="stroke:#181818;stroke-width:1.0;stroke-dasharray:7.0,7.0;"/>
            <polygon fill="#181818" points="2237.11,389.83,2238.8122,380.1294,2235.8996,384.9787,2231.0502,382.066,2237.11,389.83" style="stroke:#181818;stroke-width:1.0;"/>
        </g>
        <!--link Travel to Override-->
        <g id="link_Travel_Override">
            <path codeLine="45" d="M1678.94,178.09 C1686.15,200.84 1700.74,234.39 1727,250 C1747.59,262.24 2137.54,245.56 2158,258 C2205.99,287.18 2226.8986,348.3457 2235.7086,383.9457 " fill="none" id="Travel-to-Override" style="stroke:#181818;stroke-width:1.0;stroke-dasharray:7.0,7.0;"/>
            <polygon fill="#181818" points="2237.15,389.77,2238.8708,380.0726,2235.9489,384.9164,2231.1051,381.9944,2237.15,389.77" style="stroke:#181818;stroke-width:1.0;"/>
        </g>
        <!--SRC=[fLLRRi8m4FplAJY1Zz2FabP5eW-HS82Liu2hs8uswwZSlYP02I71SVY9Ok_C-B7ZNJ36Ch2oPlO3DOW2p5PyrKYaSdoI1LJLJ5ejzDv_Ip1xiRCQ9H3cBEPMQsUKRFWXyFlfDyc2oFrMeGcklh1PWhMI-66DOaiX_3Bz2a4-7PCQSvXlf2gCoWXCLLhYKHVaqJKM9rIJ36N5Yzjiq8TN23bI9xWmfUEK2K7VnWtwcsGkrwlbt1g3ihM7Vu0FjgTOQHI98-XYcy3IIYWIOCpyg3_Q6zbOqi3Yp7nhXdozsmR8gFrjGI7cExB6hdrQsnZ7gX2f17yOkfcNraX7X8R5wozAvmrHtGEbSeUvAp0_erEaWvdkSGwxFsvgr8kO2V7S-weYsNsN7tvb7Vubgz7KHvTkEIEQE-oTQAbUTyMeNFilcjdlq4TaXZtyY6hOvTtAUz7ggLYJH7egMxpEG0MS9jHKodZgXCoF5ulF_tZji0jyFuskSCU-6KsxRgHJwBwp3j3-0000]-->
    </g>
</svg>
